<svg xmlns="http://www.w3.org/2000/svg" version="1.1" xmlns:xlink="http://www.w3.org/1999/xlink" xmlns:svgjs="http://svgjs.dev/svgjs" width="1440" height="560" preserveAspectRatio="none" viewBox="0 0 1440 560"><g mask="url(&quot;#SvgjsMask1532&quot;)" fill="none"><rect width="1440" height="560" x="0" y="0" fill="url(&quot;#SvgjsLinearGradient1533&quot;)"></rect><path d="M1440 0L1299.82 0L1440 160.93z" fill="rgba(255, 255, 255, .1)"></path><path d="M1299.82 0L1440 160.93L1440 218.8L589.3199999999999 0z" fill="rgba(255, 255, 255, .075)"></path><path d="M589.3199999999999 0L1440 218.8L1440 429.37L546.5999999999999 0z" fill="rgba(255, 255, 255, .05)"></path><path d="M546.5999999999999 0L1440 429.37L1440 515.75L439.1099999999999 0z" fill="rgba(255, 255, 255, .025)"></path><path d="M0 560L226.62 560L0 440.43z" fill="rgba(0, 0, 0, .1)"></path><path d="M0 440.43L226.62 560L412.49 560L0 436.8z" fill="rgba(0, 0, 0, .075)"></path><path d="M0 436.8L412.49 560L746.21 560L0 421.43z" fill="rgba(0, 0, 0, .05)"></path><path d="M0 421.43L746.21 560L891.8000000000001 560L0 332.8z" fill="rgba(0, 0, 0, .025)"></path></g><defs><mask id="SvgjsMask1532"><rect width="1440" height="560" fill="#ffffff"></rect></mask><linearGradient x1="50%" y1="0%" x2="50%" y2="100%" gradientUnits="userSpaceOnUse" id="SvgjsLinearGradient1533"><stop stop-color="rgba(51, 51, 51, 1)" offset="1"></stop><stop stop-color="rgba(214, 211, 23, 1)" offset="1"></stop></linearGradient></defs></svg>