<svg xmlns="http://www.w3.org/2000/svg" version="1.1" xmlns:xlink="http://www.w3.org/1999/xlink" xmlns:svgjs="http://svgjs.dev/svgjs" width="1440" height="560" preserveAspectRatio="none" viewBox="0 0 1440 560"><g mask="url(&quot;#SvgjsMask1011&quot;)" fill="none"><rect width="1440" height="560" x="0" y="0" fill="url(&quot;#SvgjsLinearGradient1012&quot;)"></rect><path d="M0 0L578.13 0L0 122.94z" fill="rgba(255, 255, 255, .1)"></path><path d="M0 122.94L578.13 0L688.73 0L0 298.93z" fill="rgba(255, 255, 255, .075)"></path><path d="M0 298.93L688.73 0L892.39 0L0 306.12z" fill="rgba(255, 255, 255, .05)"></path><path d="M0 306.12L892.39 0L1016.04 0L0 413.18z" fill="rgba(255, 255, 255, .025)"></path><path d="M1440 560L746.93 560L1440 431.13z" fill="rgba(0, 0, 0, .1)"></path><path d="M1440 431.13L746.93 560L450.40999999999997 560L1440 397.28999999999996z" fill="rgba(0, 0, 0, .075)"></path><path d="M1440 397.28999999999996L450.40999999999997 560L318.51 560L1440 394.14z" fill="rgba(0, 0, 0, .05)"></path><path d="M1440 394.14L318.51 560L245.27999999999997 560L1440 255.89z" fill="rgba(0, 0, 0, .025)"></path></g><defs><mask id="SvgjsMask1011"><rect width="1440" height="560" fill="#ffffff"></rect></mask><linearGradient x1="15.28%" y1="-39.29%" x2="84.72%" y2="139.29%" gradientUnits="userSpaceOnUse" id="SvgjsLinearGradient1012"><stop stop-color="#0e2a47" offset="0"></stop><stop stop-color="#00459e" offset="1"></stop></linearGradient></defs></svg>