<svg xmlns="http://www.w3.org/2000/svg" version="1.1" xmlns:xlink="http://www.w3.org/1999/xlink" xmlns:svgjs="http://svgjs.dev/svgjs" width="1440" height="1555" preserveAspectRatio="none" viewBox="0 0 1440 1555"><g mask="url(&quot;#SvgjsMask1330&quot;)" fill="none"><rect width="1440" height="1555" x="0" y="0" fill="url(&quot;#SvgjsLinearGradient1331&quot;)"></rect><path d="M0 0L202.98 0L0 643.24z" fill="rgba(255, 255, 255, .1)"></path><path d="M0 643.24L202.98 0L265.12 0L0 803.75z" fill="rgba(255, 255, 255, .075)"></path><path d="M0 803.75L265.12 0L575.78 0L0 1255.26z" fill="rgba(255, 255, 255, .05)"></path><path d="M0 1255.26L575.78 0L931.19 0L0 1437.68z" fill="rgba(255, 255, 255, .025)"></path><path d="M1440 1555L987.48 1555L1440 1226.1z" fill="rgba(0, 0, 0, .1)"></path><path d="M1440 1226.1L987.48 1555L674.84 1555L1440 852.8199999999999z" fill="rgba(0, 0, 0, .075)"></path><path d="M1440 852.82L674.84 1555L288.29 1555L1440 825.7900000000001z" fill="rgba(0, 0, 0, .05)"></path><path d="M1440 825.7900000000001L288.28999999999996 1555L229.04999999999995 1555L1440 487.13000000000005z" fill="rgba(0, 0, 0, .025)"></path></g><defs><mask id="SvgjsMask1330"><rect width="1440" height="1555" fill="#ffffff"></rect></mask><linearGradient x1="-2%" y1="1.85%" x2="102%" y2="98.15%" gradientUnits="userSpaceOnUse" id="SvgjsLinearGradient1331"><stop stop-color="rgba(51, 51, 51, 1)" offset="0.37"></stop><stop stop-color="rgba(214, 115, 23, 1)" offset="1"></stop></linearGradient></defs></svg>